<svg width="24" height="24" viewBox="0 0 24 24" fill="none" xmlns="http://www.w3.org/2000/svg">
<g clip-path="url(#clip0_2_33)">
<path fill-rule="evenodd" clip-rule="evenodd" d="M18.4252 18.3702C17.4839 18.3702 16.5986 18.0041 15.9326 17.338L12.32 13.7255C12.068 13.4735 11.6275 13.4726 11.3745 13.7255L7.77528 17.3248C7.10923 17.9908 6.22395 18.357 5.28251 18.357H4.84906L9.42036 22.9282C10.8442 24.352 13.1523 24.352 14.576 22.9282L19.1341 18.3702H18.4252ZM13.5011 21.8542C13.1003 22.2541 12.5668 22.4753 11.9987 22.4753H11.9978C11.4297 22.4753 10.8952 22.254 10.4954 21.8542L7.83036 19.1892C8.1995 18.9729 8.54122 18.7088 8.85026 18.3998L11.8478 15.4022L14.8586 18.413C15.2166 18.7721 15.6174 19.0699 16.0529 19.3014L13.5011 21.8542V21.8542ZM14.5761 1.06781C13.1524 -0.355968 10.8443 -0.355968 9.42045 1.06781L4.8492 5.63906H5.28265C6.224 5.63906 7.10937 6.00628 7.77537 6.67125L11.3746 10.2705C11.6357 10.5327 12.06 10.5316 12.3201 10.2705L15.9327 6.65798C16.5987 5.99297 17.484 5.6258 18.4253 5.6258H19.1342L14.5761 1.06781ZM14.8587 5.58403L11.8479 8.59481L8.84932 5.59622C8.54028 5.28722 8.19964 5.02406 7.83045 4.80788L10.4954 2.14177C11.3247 1.31466 12.674 1.31358 13.5011 2.14177L16.053 4.69462C15.6174 4.92717 15.2166 5.22502 14.8587 5.58403H14.8587Z" fill="#820AD1"/>
<path fill-rule="evenodd" clip-rule="evenodd" d="M22.9288 9.42047L20.1923 6.68405H18.4249C17.7762 6.68405 17.1408 6.94819 16.6818 7.40714L13.0693 11.0197C12.7317 11.3563 12.2901 11.5246 11.8474 11.5246C11.4047 11.5246 10.9621 11.3563 10.6255 11.0197L7.02623 7.42045C6.56723 6.96042 5.93188 6.69731 5.28215 6.69731H3.79105L1.06781 9.42047C-0.355976 10.8443 -0.355976 13.1524 1.06781 14.5762L3.79101 17.2984L5.2821 17.2994C5.93179 17.2994 6.56723 17.0352 7.02623 16.5763L10.6255 12.978C11.2782 12.3242 12.4165 12.3253 13.0692 12.977L16.6818 16.5895C17.1407 17.0485 17.7761 17.3116 18.4248 17.3116H20.1923L22.9288 14.5762C24.3526 13.1524 24.3526 10.8443 22.9288 9.42047H22.9288ZM5.9512 15.5013C5.7748 15.6787 5.53204 15.7786 5.28215 15.7786H4.4204L2.14274 13.5022C1.31357 12.673 1.31357 11.3236 2.14274 10.4955L4.42031 8.217H5.2821C5.53199 8.217 5.77476 8.31797 5.95218 8.49441L9.45562 11.9978L5.9512 15.5013ZM21.8539 13.5022L19.5641 15.793H18.4248C18.176 15.793 17.9323 15.692 17.7568 15.5155L14.2401 11.9978L17.7568 8.48114C17.9323 8.3047 18.176 8.20373 18.4249 8.20373H19.5641L21.8538 10.4955C22.2557 10.8963 22.476 11.4297 22.476 11.9978C22.476 12.567 22.2557 13.1003 21.8538 13.5022H21.8539Z" fill="#820AD1"/>
</g>
<defs>
<clipPath id="clip0_2_33">
<rect width="24" height="24" fill="white"/>
</clipPath>
</defs>
</svg>
