<svg width="16" height="16" viewBox="0 0 16 16" fill="none" xmlns="http://www.w3.org/2000/svg">
<path d="M14.6133 7.73334C13.2667 4.60667 10.7333 2.66667 8.00001 2.66667C5.26668 2.66667 2.73335 4.60667 1.38668 7.73334C1.34997 7.81745 1.33102 7.90823 1.33102 8C1.33102 8.09178 1.34997 8.18256 1.38668 8.26667C2.73335 11.3933 5.26668 13.3333 8.00001 13.3333C10.7333 13.3333 13.2667 11.3933 14.6133 8.26667C14.6501 8.18256 14.669 8.09178 14.669 8C14.669 7.90823 14.6501 7.81745 14.6133 7.73334ZM8.00001 12C5.88668 12 3.88668 10.4733 2.73335 8C3.88668 5.52667 5.88668 4 8.00001 4C10.1133 4 12.1133 5.52667 13.2667 8C12.1133 10.4733 10.1133 12 8.00001 12ZM8.00001 5.33334C7.4726 5.33334 6.95703 5.48974 6.51849 5.78275C6.07996 6.07577 5.73817 6.49225 5.53633 6.97952C5.3345 7.46678 5.28169 8.00296 5.38459 8.52025C5.48748 9.03753 5.74146 9.51268 6.1144 9.88562C6.48734 10.2586 6.96249 10.5125 7.47977 10.6154C7.99706 10.7183 8.53323 10.6655 9.0205 10.4637C9.50777 10.2618 9.92425 9.92006 10.2173 9.48152C10.5103 9.04299 10.6667 8.52742 10.6667 8C10.6667 7.29276 10.3857 6.61448 9.88563 6.11439C9.38554 5.61429 8.70726 5.33334 8.00001 5.33334ZM8.00001 9.33334C7.73631 9.33334 7.47852 9.25514 7.25925 9.10863C7.03999 8.96212 6.86909 8.75388 6.76817 8.51025C6.66726 8.26661 6.64085 7.99853 6.6923 7.73988C6.74375 7.48124 6.87074 7.24367 7.05721 7.0572C7.24368 6.87073 7.48125 6.74374 7.73989 6.69229C7.99854 6.64084 8.26662 6.66725 8.51026 6.76817C8.75389 6.86908 8.96213 7.03998 9.10864 7.25924C9.25515 7.47851 9.33335 7.7363 9.33335 8C9.33335 8.35363 9.19287 8.69276 8.94282 8.94281C8.69277 9.19286 8.35364 9.33334 8.00001 9.33334Z" fill="white"/>
</svg>
